<?xml version="1.0" encoding="utf-8"?>
<!-- Generator: Adobe Illustrator 16.0.0, SVG Export Plug-In . SVG Version: 6.00 Build 0)  -->
<!DOCTYPE svg PUBLIC "-//W3C//DTD SVG 1.1//EN" "http://www.w3.org/Graphics/SVG/1.1/DTD/svg11.dtd">
<svg version="1.1" id="Layer_1" xmlns="http://www.w3.org/2000/svg" xmlns:xlink="http://www.w3.org/1999/xlink" x="0px" y="0px"
	 width="400px" height="300px" viewBox="0 0 400 300" enable-background="new 0 0 400 300" xml:space="preserve">
<rect fill="#A9DB60" width="400" height="300"/>
<g>
	<g>
		<circle fill="#A9DB60" stroke="#FFFFFF" stroke-width="9" stroke-miterlimit="10" cx="96.799" cy="150" r="49.5"/>
		<g>
			<path fill="#FFFFFF" d="M66.366,130.355h11.271l0.966,4.912h0.322c1.61-1.556,3.341-2.925,5.193-4.106
				c1.852-1.18,4.146-1.771,6.884-1.771c2.737,0,5.004,0.551,6.803,1.651c1.799,1.101,3.233,2.697,4.308,4.79
				c1.663-1.717,3.462-3.22,5.394-4.508c1.934-1.288,4.269-1.933,7.006-1.933c4.4,0,7.62,1.49,9.66,4.468
				c2.04,2.979,3.061,6.965,3.061,11.957v24.798h-13.848v-23.027c0-2.576-0.322-4.293-0.967-5.152
				c-0.644-0.858-1.664-1.289-3.06-1.289c-1.718,0-3.597,1.021-5.636,3.06v26.408H89.875v-23.027c0-2.576-0.322-4.293-0.966-5.152
				c-0.644-0.858-1.664-1.289-3.059-1.289c-1.719,0-3.597,1.021-5.636,3.06v26.408H66.366V130.355z"/>
		</g>
	</g>
	<g>
		<path fill="#FFFFFF" d="M161.619,138.899c-1.557,0-2.836-0.445-3.836-1.334c-1.001-0.89-1.501-2.038-1.501-3.447
			c0-1.408,0.5-2.557,1.501-3.447c1-0.89,2.279-1.334,3.836-1.334s2.836,0.445,3.837,1.334c1,0.89,1.501,2.039,1.501,3.447
			c0,1.409-0.501,2.558-1.501,3.447C164.455,138.454,163.175,138.899,161.619,138.899z M156.837,142.346h9.562v27.798h-9.562
			V142.346z"/>
		<path fill="#FFFFFF" d="M171.458,131.449h9.562v29.244c0,0.964,0.177,1.611,0.528,1.945c0.353,0.333,0.695,0.5,1.028,0.5
			c0.186,0,0.343,0,0.473,0s0.307-0.036,0.528-0.111l1.112,7.006c-0.52,0.222-1.159,0.407-1.918,0.556
			c-0.76,0.147-1.678,0.222-2.752,0.222c-1.632,0-2.994-0.249-4.087-0.75c-1.094-0.5-1.973-1.213-2.641-2.14
			c-0.667-0.927-1.14-2.029-1.418-3.309c-0.277-1.278-0.417-2.696-0.417-4.253V131.449z"/>
		<path fill="#FFFFFF" d="M186.636,131.449h9.34v20.57h0.222l7.673-9.673h10.34l-9.895,11.563l10.451,16.235h-10.34l-5.561-9.896
			l-2.891,3.225v6.672h-9.34V131.449z"/>
		<path fill="#FFFFFF" d="M218.826,161.026c2.52,1.854,4.781,2.78,6.783,2.78c1,0,1.713-0.14,2.141-0.418
			c0.426-0.277,0.639-0.694,0.639-1.25c0-0.37-0.148-0.695-0.445-0.973c-0.297-0.278-0.695-0.537-1.195-0.779
			c-0.5-0.24-1.066-0.473-1.695-0.695c-0.631-0.222-1.299-0.48-2.002-0.777c-0.814-0.334-1.639-0.731-2.475-1.196
			c-0.834-0.462-1.584-1.028-2.25-1.695c-0.668-0.667-1.215-1.436-1.641-2.307c-0.426-0.87-0.639-1.881-0.639-3.03
			c0-1.371,0.268-2.613,0.805-3.725s1.289-2.057,2.252-2.835c0.965-0.778,2.121-1.38,3.475-1.807c1.354-0.426,2.844-0.64,4.477-0.64
			c2.297,0,4.27,0.38,5.92,1.14c1.648,0.76,3.086,1.603,4.309,2.529l-4.225,5.671c-1.002-0.741-1.982-1.316-2.947-1.725
			c-0.963-0.407-1.871-0.611-2.725-0.611c-1.631,0-2.445,0.519-2.445,1.556c0,0.371,0.139,0.688,0.416,0.945
			c0.279,0.26,0.658,0.5,1.141,0.723c0.48,0.223,1.037,0.437,1.668,0.64c0.629,0.204,1.297,0.436,2.002,0.695
			c0.814,0.297,1.648,0.666,2.5,1.112c0.854,0.444,1.623,0.991,2.309,1.639c0.686,0.649,1.24,1.428,1.668,2.336
			c0.426,0.908,0.639,1.992,0.639,3.252c0,1.299-0.26,2.512-0.777,3.642c-0.52,1.131-1.279,2.113-2.281,2.946
			c-1,0.835-2.242,1.483-3.725,1.946s-3.188,0.694-5.113,0.694c-1.779,0-3.662-0.352-5.645-1.056
			c-1.982-0.703-3.695-1.648-5.141-2.835L218.826,161.026z"/>
		<path fill="#FFFFFF" d="M240.562,131.449h9.562v9.007l-0.443,4.781c0.963-0.853,2.121-1.659,3.475-2.418
			c1.352-0.76,2.975-1.14,4.863-1.14c3.039,0,5.246,1.028,6.617,3.085c1.371,2.058,2.057,4.81,2.057,8.256v17.124h-9.562v-15.9
			c0-1.779-0.223-2.966-0.668-3.559c-0.443-0.593-1.148-0.89-2.111-0.89c-0.891,0-1.631,0.187-2.225,0.556
			c-0.592,0.371-1.26,0.891-2.002,1.557v18.236h-9.562V131.449z"/>
		<path fill="#FFFFFF" d="M270.641,162.25c0-2.892,1.186-5.161,3.559-6.812c2.371-1.648,6.227-2.751,11.562-3.308
			c-0.223-1.928-1.52-2.891-3.891-2.891c-1.002,0-2.059,0.194-3.17,0.583c-1.111,0.39-2.391,0.974-3.836,1.752l-3.336-6.227
			c1.965-1.186,3.947-2.093,5.949-2.724c2.002-0.63,4.096-0.945,6.283-0.945c3.594,0,6.42,1.028,8.479,3.085
			c2.057,2.058,3.084,5.365,3.084,9.924v15.456h-7.783l-0.666-2.669h-0.223c-1.113,1.001-2.289,1.807-3.531,2.418
			c-1.242,0.612-2.623,0.917-4.141,0.917c-1.299,0-2.467-0.231-3.504-0.694s-1.918-1.084-2.641-1.862s-1.27-1.687-1.641-2.725
			C270.826,164.493,270.641,163.398,270.641,162.25z M279.758,161.471c0,1.335,0.852,2.002,2.557,2.002
			c0.779,0,1.418-0.176,1.92-0.528c0.5-0.352,1.01-0.806,1.527-1.362v-3.78c-2.299,0.333-3.873,0.834-4.725,1.501
			C280.184,159.97,279.758,160.693,279.758,161.471z"/>
		<path fill="#FFFFFF" d="M300.273,131.449h9.34v20.57h0.223l7.672-9.673h10.342l-9.896,11.563l10.451,16.235h-10.34l-5.561-9.896
			l-2.891,3.225v6.672h-9.34V131.449z"/>
		<path fill="#FFFFFF" d="M327.236,156.245c0-2.261,0.381-4.29,1.141-6.087c0.76-1.798,1.76-3.327,3.002-4.588
			c1.24-1.259,2.66-2.224,4.254-2.891c1.592-0.667,3.242-1,4.947-1c2.039,0,3.816,0.353,5.338,1.056
			c1.52,0.705,2.779,1.668,3.781,2.891c1,1.224,1.75,2.65,2.25,4.281s0.752,3.373,0.752,5.226c0,0.854-0.047,1.612-0.141,2.28
			c-0.092,0.667-0.176,1.167-0.25,1.501h-15.844c0.443,1.779,1.24,3.002,2.391,3.669c1.148,0.668,2.5,1.001,4.057,1.001
			c0.965,0,1.9-0.14,2.809-0.417c0.908-0.278,1.863-0.695,2.863-1.251l3.113,5.67c-1.52,1.076-3.197,1.882-5.031,2.419
			s-3.531,0.806-5.088,0.806c-2.039,0-3.928-0.324-5.67-0.973c-1.742-0.647-3.252-1.593-4.531-2.835
			c-1.277-1.241-2.289-2.771-3.029-4.587C327.607,160.601,327.236,158.544,327.236,156.245z M344.582,153.132
			c0-1.187-0.268-2.187-0.805-3.003c-0.539-0.814-1.529-1.223-2.975-1.223c-1.076,0-2.012,0.315-2.807,0.945
			c-0.799,0.631-1.344,1.724-1.641,3.28H344.582z"/>
	</g>
</g>
</svg>
