<?xml version="1.0" encoding="utf-8"?>
<!-- Generator: Adobe Illustrator 16.0.0, SVG Export Plug-In . SVG Version: 6.00 Build 0)  -->
<!DOCTYPE svg PUBLIC "-//W3C//DTD SVG 1.1//EN" "http://www.w3.org/Graphics/SVG/1.1/DTD/svg11.dtd">
<svg version="1.1" id="Layer_1" xmlns="http://www.w3.org/2000/svg" xmlns:xlink="http://www.w3.org/1999/xlink" x="0px" y="0px"
	 width="400px" height="300px" viewBox="0 0 400 300" enable-background="new 0 0 400 300" xml:space="preserve">
<rect fill="#00ACED" width="400" height="300"/>
<polygon fill="#FFD464" points="203.375,103.026 198.384,103.026 147.22,103.026 167.252,238.766 198.384,238.766 203.375,238.766 
	234.506,238.766 254.539,103.026 "/>
<rect x="189.667" y="103.026" fill="#F26964" width="22.427" height="135.738"/>
<ellipse fill="#F26964" cx="200.879" cy="170.897" rx="37.971" ry="25.179"/>
<g enable-background="new    ">
	<path fill="#FFFFFF" d="M185.843,166.723c0-0.147,0.119-0.285,0.283-0.285h3.607c1.84,0,3.353,1.496,3.353,3.309
		c0,1.855-1.512,3.368-3.338,3.368h-1.569v3.516c0,0.149-0.135,0.287-0.284,0.287h-1.768c-0.165,0-0.282-0.137-0.282-0.287v-9.903
		h-0.002V166.723z M189.601,170.928c0.645,0,1.184-0.508,1.184-1.184c0-0.631-0.54-1.107-1.184-1.107h-1.422v2.289L189.601,170.928
		L189.601,170.928z"/>
	<path fill="#FFFFFF" d="M199.272,166.287c2.996,0,5.388,2.414,5.388,5.404c0,2.992-2.395,5.375-5.388,5.375
		c-2.994,0-5.375-2.379-5.375-5.375C193.9,168.699,196.28,166.287,199.272,166.287z M199.272,174.672
		c1.645,0,2.996-1.35,2.996-2.979c0-1.646-1.351-3.01-2.996-3.01c-1.634,0-2.979,1.361-2.979,3.01
		C196.293,173.322,197.642,174.672,199.272,174.672z"/>
	<path fill="#FFFFFF" d="M206.477,166.723c0-0.147,0.121-0.285,0.283-0.285h3.607c1.84,0,3.352,1.496,3.352,3.309
		c0,1.855-1.512,3.368-3.338,3.368h-1.568v3.516c0,0.149-0.135,0.287-0.283,0.287h-1.768c-0.166,0-0.283-0.137-0.283-0.287
		L206.477,166.723L206.477,166.723z M210.236,170.928c0.646,0,1.184-0.508,1.184-1.184c0-0.631-0.541-1.107-1.184-1.107h-1.422
		v2.289L210.236,170.928L210.236,170.928z"/>
	<path fill="#FFFFFF" d="M216.346,174.219c0.777,0,1.438,0.66,1.438,1.438c0,0.767-0.658,1.407-1.438,1.407
		c-0.764,0-1.406-0.644-1.406-1.407C214.939,174.879,215.584,174.219,216.346,174.219z M215.762,172.605l-0.732-4.179v-1.704
		c0-0.148,0.136-0.285,0.283-0.285h2.097c0.146,0,0.282,0.137,0.282,0.285v1.678l-0.733,4.205c-0.019,0.119-0.146,0.24-0.281,0.24
		h-0.631C215.912,172.844,215.777,172.723,215.762,172.605z"/>
</g>
<path fill="#EAD7AA" d="M252.793,89.441c0.113-0.728,0.189-1.465,0.189-2.222c0-6.164-3.896-11.402-9.346-13.437
	c-2.318-4.806-7.226-8.128-12.919-8.128c-3.827,0-7.307,3.323-9.879,5.769c-1.473-6.354-7.157-10.189-13.963-10.189
	c-5.058,0-9.488,1.716-12.045,5.663c-2.395-1.792-5.355-4.679-8.58-4.679c-2.329,0-4.521,0.567-6.468,1.553
	c-1.943-0.984-4.135-1.553-6.466-1.553c-6.542,0-12.051,4.383-13.78,10.368c-5.975,1.734-10.346,7.238-10.346,13.772
	c0,0.577,0.044,1.141,0.108,1.696c-4.512,2.42-7.582,7.177-7.582,12.653c0,7.927,6.426,14.351,14.352,14.351
	c3.215,0,6.169-1.068,8.562-2.854c2.134,1.259,4.612,1.994,7.271,1.994c2.857,0,5.516-0.846,7.752-2.287
	c2.619,3.47,6.764,5.722,11.447,5.722c3.471,0,6.651-1.23,9.134-3.281c1.951,0.992,4.158,1.562,6.496,1.562
	c5.504,0,10.277-3.103,12.689-7.651c2.596,2.604,6.188,4.217,10.158,4.217c1.756,0,3.436-0.33,4.988-0.91
	c2.516,2.168,5.783,3.488,9.363,3.488c7.926,0,14.35-6.426,14.35-14.352C258.283,96.133,256.133,92.067,252.793,89.441z"/>
<g>
	<path fill="none" stroke="#DBC6A1" stroke-width="2" stroke-miterlimit="10" d="M152.489,104.107c0,0,11.705-12.225,20.843,0.453"
		/>
	<path fill="none" stroke="#DBC6A1" stroke-width="2" stroke-miterlimit="10" d="M224.457,102.738c0,0,11.707-12.226,20.846,0.451"
		/>
	<path fill="none" stroke="#DBC6A1" stroke-width="2" stroke-miterlimit="10" d="M190.459,77.73c0,0,11.705-12.225,20.844,0.453"/>
	<path fill="none" stroke="#DBC6A1" stroke-width="2" stroke-miterlimit="10" d="M157.641,83.75c0,0,11.706-12.223,20.844,0.452"/>
	<path fill="none" stroke="#DBC6A1" stroke-width="2" stroke-miterlimit="10" d="M217.184,83.483c0,0,11.703-12.225,20.842,0.453"/>
	<path fill="none" stroke="#DBC6A1" stroke-width="2" stroke-miterlimit="10" d="M189.581,98.13c0,0,11.706-12.225,20.845,0.452"/>
</g>
</svg>