<?xml version="1.0" encoding="utf-8"?>
<!-- Generator: Adobe Illustrator 16.0.0, SVG Export Plug-In . SVG Version: 6.00 Build 0)  -->
<!DOCTYPE svg PUBLIC "-//W3C//DTD SVG 1.1//EN" "http://www.w3.org/Graphics/SVG/1.1/DTD/svg11.dtd">
<svg version="1.1" id="Layer_1" xmlns="http://www.w3.org/2000/svg" xmlns:xlink="http://www.w3.org/1999/xlink" x="0px" y="0px"
	 width="24px" height="24px" viewBox="38 38 24 24" enable-background="new 38 38 24 24" xml:space="preserve">
<g id="Captions">
</g>
<g id="Your_Icon">
	<path fill="#2D88C7" d="M50,38c-6.626,0-12,5.373-12,12c0,6.628,5.373,12,12,12c6.627,0,12-5.372,12-12C62,43.373,56.627,38,50,38z
		 M50,59.392c-5.186,0-9.391-4.205-9.391-9.392c0-5.187,4.205-9.391,9.391-9.391c5.187,0,9.392,4.204,9.392,9.391
		C59.392,55.187,55.187,59.392,50,59.392z"/>
	<circle fill="#2D88C7" cx="46.478" cy="47.094" r="1.739"/>
	<path fill="#2D88C7" d="M55.437,52.057c-0.553-0.339-1.275-0.164-1.614,0.389c-0.707,1.156-2.207,1.902-3.822,1.902
		s-3.116-0.746-3.823-1.902c-0.338-0.553-1.061-0.728-1.614-0.389c-0.554,0.338-0.727,1.061-0.389,1.614
		c1.141,1.865,3.374,3.024,5.825,3.024c2.452,0,4.684-1.159,5.825-3.024C56.163,53.117,55.989,52.395,55.437,52.057z"/>
	<path fill="#2D88C7" d="M51.783,48.134h2.524c0.574,0,1.04-0.466,1.04-1.04s-0.466-1.04-1.04-1.04h-2.524
		c-0.574,0-1.04,0.466-1.04,1.04S51.209,48.134,51.783,48.134z"/>
</g>
</svg>